SplineFontDB: 3.2
FontName: ExcludedItalic
FullName: ExcludedItalic
FamilyName: ExcludedItalic
Weight: Book
Copyright: Copyright (c) 2020, Foyezes
Version: 001.000
ItalicAngle: 0
UnderlinePosition: -100
UnderlineWidth: 50
Ascent: 800
Descent: 200
InvalidEm: 0
sfntRevision: 0x00010000
LayerCount: 2
Layer: 0 1 "Back" 1
Layer: 1 1 "Fore" 0
XUID: [1021 458 1227800057 5740243]
StyleMap: 0x0000
FSType: 0
OS2Version: 1
OS2_WeightWidthSlopeOnly: 0
OS2_UseTypoMetrics: 0
CreationTime: 1621091631
ModificationTime: 1621540483
PfmFamily: 17
TTFWeight: 400
TTFWidth: 5
LineGap: 90
VLineGap: 0
Panose: 2 0 5 3 0 0 0 0 0 0
OS2TypoAscent: 800
OS2TypoAOffset: 0
OS2TypoDescent: -200
OS2TypoDOffset: 0
OS2TypoLinegap: 90
OS2WinAscent: 666
OS2WinAOffset: 0
OS2WinDescent: 98
OS2WinDOffset: 0
HheadAscent: 666
HheadAOffset: 0
HheadDescent: -98
HheadDOffset: 0
OS2SubXSize: 650
OS2SubYSize: 700
OS2SubXOff: 0
OS2SubYOff: 140
OS2SupXSize: 650
OS2SupYSize: 700
OS2SupXOff: 0
OS2SupYOff: 480
OS2StrikeYSize: 49
OS2StrikeYPos: 258
OS2Vendor: 'PfEd'
OS2CodePages: 00000001.00000000
OS2UnicodeRanges: 00000003.00000000.00000000.00000000
DEI: 91125
ShortTable: maxp 16
  1
  0
  95
  45
  3
  0
  0
  2
  0
  1
  1
  0
  64
  0
  0
  0
EndShort
LangName: 1033 "" "" "" "FontForge 2.0 : ExcludedItalic : 20-5-2021"
GaspTable: 1 65535 2 0
Encoding: UnicodeBmp
UnicodeInterp: none
NameList: AGL For New Fonts
DisplaySize: -48
AntiAlias: 1
FitToEm: 0
WinInfo: 0 27 10
BeginChars: 65537 95

StartChar: .notdef
Encoding: 65536 -1 0
Width: 364
Flags: W
LayerCount: 2
Fore
SplineSet
33 0 m 1,0,-1
 33 666 l 1,1,-1
 298 666 l 1,2,-1
 298 0 l 1,3,-1
 33 0 l 1,0,-1
66 33 m 1,4,-1
 265 33 l 1,5,-1
 265 633 l 1,6,-1
 66 633 l 1,7,-1
 66 33 l 1,4,-1
EndSplineSet
EndChar

StartChar: exclam
Encoding: 33 33 4
Width: 232
Flags: W
LayerCount: 2
Fore
SplineSet
298 550 m 1,0,-1
 237 202 l 1,1,-1
 66 202 l 1,2,-1
 128 550 l 1,3,-1
 298 550 l 1,0,-1
227 147 m 1,4,-1
 201 0 l 1,5,-1
 31 0 l 1,6,-1
 57 147 l 1,7,-1
 227 147 l 1,4,-1
EndSplineSet
EndChar

StartChar: quotedbl
Encoding: 34 34 5
Width: 175
Flags: W
LayerCount: 2
Fore
SplineSet
167 394 m 1,0,-1
 195 550 l 1,1,-1
 257 550 l 1,2,-1
 248 500 l 1,3,-1
 201 394 l 1,4,-1
 167 394 l 1,0,-1
147 394 m 1,5,-1
 114 394 l 1,6,-1
 104 500 l 1,7,-1
 113 550 l 1,8,-1
 175 550 l 1,9,-1
 147 394 l 1,5,-1
EndSplineSet
EndChar

StartChar: numbersign
Encoding: 35 35 6
Width: 562
Flags: W
LayerCount: 2
Fore
SplineSet
579 325 m 1,0,-1
 486 325 l 1,1,-1
 453 226 l 1,2,-1
 547 226 l 1,3,-1
 515 127 l 1,4,-1
 421 127 l 1,5,-1
 380 0 l 1,6,-1
 287 0 l 1,7,-1
 328 127 l 1,8,-1
 235 127 l 1,9,-1
 194 0 l 1,10,-1
 101 0 l 1,11,-1
 142 127 l 1,12,-1
 49 127 l 1,13,-1
 81 226 l 1,14,-1
 174 226 l 1,15,-1
 206 325 l 1,16,-1
 113 325 l 1,17,-1
 145 424 l 1,18,-1
 238 424 l 1,19,-1
 279 551 l 1,20,-1
 372 551 l 1,21,-1
 331 424 l 1,22,-1
 424 424 l 1,23,-1
 466 551 l 1,24,-1
 559 551 l 1,25,-1
 518 424 l 1,26,-1
 611 424 l 1,27,-1
 579 325 l 1,0,-1
360 226 m 1,28,-1
 392 325 l 1,29,-1
 299 325 l 1,30,-1
 267 226 l 1,31,-1
 360 226 l 1,28,-1
EndSplineSet
EndChar

StartChar: dollar
Encoding: 36 36 7
Width: 600
Flags: W
LayerCount: 2
Fore
SplineSet
296 403 m 1,0,-1
 286 348 l 1,1,-1
 627 348 l 1,2,-1
 585 110 l 2,3,4
 578 64 578 64 541 32 c 128,-1,5
 504 0 504 0 463 0 c 2,6,-1
 395 0 l 1,7,-1
 382 -73 l 1,8,-1
 212 -73 l 1,9,-1
 224 0 l 1,10,-1
 54 0 l 1,11,-1
 80 147 l 1,12,-1
 421 147 l 1,13,-1
 431 202 l 1,14,-1
 90 202 l 1,15,-1
 132 440 l 2,16,17
 139 486 139 486 176 518 c 0,18,19
 211 550 211 550 253 550 c 2,20,-1
 321 550 l 1,21,-1
 334 623 l 1,22,-1
 505 623 l 1,23,-1
 492 550 l 1,24,-1
 662 550 l 1,25,-1
 637 403 l 1,26,-1
 296 403 l 1,0,-1
EndSplineSet
EndChar

StartChar: quotesingle
Encoding: 39 39 10
Width: 106
Flags: W
LayerCount: 2
Fore
SplineSet
187 550 m 1,0,-1
 179 500 l 1,1,-1
 139 394 l 1,2,-1
 106 394 l 1,3,-1
 104 500 l 1,4,-1
 112 550 l 1,5,-1
 187 550 l 1,0,-1
EndSplineSet
EndChar

StartChar: parenleft
Encoding: 40 40 11
Width: 309
Flags: W
LayerCount: 2
Fore
SplineSet
279 393 m 1,0,-1
 237 157 l 1,1,-1
 311 157 l 1,2,-1
 283 0 l 1,3,-1
 136 0 l 2,4,5
 92 0 92 0 64 34 c 1,6,7
 40 70 40 70 47 118 c 2,8,-1
 103 433 l 2,9,10
 111 483 111 483 150 516 c 0,11,12
 186 551 186 551 234 551 c 2,13,-1
 380 551 l 1,14,-1
 352 393 l 1,15,-1
 279 393 l 1,0,-1
EndSplineSet
EndChar

StartChar: parenright
Encoding: 41 41 12
Width: 305
Flags: W
LayerCount: 2
Fore
SplineSet
360 433 m 2,0,-1
 304 118 l 2,1,2
 297 71 297 71 258 34 c 0,3,4
 219 0 219 0 174 0 c 2,5,-1
 38 0 l 1,6,-1
 27 0 l 1,7,-1
 55 157 l 1,8,-1
 128 157 l 1,9,-1
 170 393 l 1,10,-1
 97 393 l 1,11,-1
 124 551 l 1,12,-1
 271 551 l 2,13,14
 319 551 319 551 342 516 c 1,15,16
 368 484 368 484 360 433 c 2,0,-1
EndSplineSet
EndChar

StartChar: plus
Encoding: 43 43 14
Width: 333
Flags: W
LayerCount: 2
Fore
SplineSet
73 251 m 1,0,-1
 90 349 l 1,1,-1
 366 349 l 1,2,-1
 349 251 l 1,3,-1
 73 251 l 1,0,-1
200 448 m 1,4,-1
 292 448 l 1,5,-1
 239 152 l 1,6,-1
 148 152 l 1,7,-1
 200 448 l 1,4,-1
EndSplineSet
EndChar

StartChar: comma
Encoding: 44 44 15
Width: 268
Flags: W
LayerCount: 2
Fore
SplineSet
258 130 m 1,0,-1
 147 -98 l 1,1,-1
 11 -98 l 1,2,-1
 122 130 l 1,3,-1
 258 130 l 1,0,-1
EndSplineSet
EndChar

StartChar: hyphen
Encoding: 45 45 16
Width: 333
Flags: W
LayerCount: 2
Fore
SplineSet
73 251 m 1,0,-1
 90 349 l 1,1,-1
 366 349 l 1,2,-1
 349 251 l 1,3,-1
 73 251 l 1,0,-1
EndSplineSet
EndChar

StartChar: period
Encoding: 46 46 17
Width: 184
Flags: W
LayerCount: 2
Fore
SplineSet
23 0 m 1,0,-1
 49 147 l 1,1,-1
 185 147 l 1,2,-1
 159 0 l 1,3,-1
 23 0 l 1,0,-1
EndSplineSet
EndChar

StartChar: slash
Encoding: 47 47 18
Width: 556
Flags: W
LayerCount: 2
Fore
SplineSet
608 551 m 1,0,-1
 215 0 l 1,1,-1
 45 0 l 1,2,-1
 438 551 l 1,3,-1
 608 551 l 1,0,-1
EndSplineSet
EndChar

StartChar: zero
Encoding: 48 48 19
Width: 584
Flags: W
LayerCount: 2
Fore
SplineSet
542 550 m 2,0,1
 584 550 584 550 608 518 c 0,2,3
 633 488 633 488 625 440 c 2,4,-1
 566 110 l 2,5,6
 559 64 559 64 522 32 c 0,7,8
 487 0 487 0 445 0 c 2,9,-1
 138 0 l 2,10,11
 96 0 96 0 72 32 c 0,12,13
 47 62 47 62 55 110 c 2,14,-1
 113 440 l 2,15,16
 120 486 120 486 157 518 c 128,-1,17
 194 550 194 550 235 550 c 2,18,-1
 542 550 l 2,0,1
444 122 m 1,19,-1
 500 428 l 1,20,-1
 238 428 l 1,21,-1
 183 122 l 1,22,-1
 444 122 l 1,19,-1
EndSplineSet
EndChar

StartChar: one
Encoding: 49 49 20
Width: 397
Flags: W
LayerCount: 2
Fore
SplineSet
448 550 m 1,0,-1
 351 0 l 1,1,-1
 225 0 l 1,2,-1
 301 435 l 1,3,-1
 232 435 l 1,4,-1
 253 550 l 1,5,-1
 448 550 l 1,0,-1
EndSplineSet
EndChar

StartChar: two
Encoding: 50 50 21
Width: 629
Flags: W
LayerCount: 2
Fore
SplineSet
667 550 m 1,0,-1
 625 312 l 2,1,2
 618 267 618 267 582 241 c 0,3,4
 548 216 548 216 505 216 c 2,5,-1
 229 216 l 1,6,-1
 212 118 l 1,7,-1
 590 118 l 1,8,-1
 570 0 l 1,9,-1
 58 0 l 1,10,-1
 100 238 l 2,11,12
 107 283 107 283 142 308 c 0,13,14
 179 331 179 331 219 331 c 2,15,-1
 493 331 l 1,16,-1
 509 427 l 1,17,-1
 133 427 l 1,18,-1
 155 550 l 1,19,-1
 667 550 l 1,0,-1
EndSplineSet
EndChar

StartChar: three
Encoding: 51 51 22
Width: 629
Flags: W
LayerCount: 2
Fore
SplineSet
648 440 m 2,0,-1
 590 110 l 2,1,2
 583 64 583 64 546 32 c 128,-1,3
 509 0 509 0 468 0 c 2,4,-1
 59 0 l 1,5,-1
 81 123 l 1,6,-1
 450 123 l 1,7,-1
 466 212 l 1,8,-1
 183 212 l 1,9,-1
 205 333 l 1,10,-1
 483 333 l 1,11,-1
 499 429 l 1,12,-1
 135 429 l 1,13,-1
 156 550 l 1,14,-1
 565 550 l 2,15,16
 606 550 606 550 632 518 c 0,17,18
 656 487 656 487 648 440 c 2,0,-1
87 157 m 1024,19,-1
EndSplineSet
EndChar

StartChar: four
Encoding: 52 52 23
Width: 629
Flags: W
LayerCount: 2
Fore
SplineSet
665 550 m 1,0,-1
 568 0 l 1,1,-1
 435 0 l 1,2,-1
 471 202 l 1,3,-1
 194 202 l 2,4,5
 132 202 132 202 115 225 c 0,6,7
 100 248 100 248 111 312 c 2,8,-1
 153 550 l 1,9,-1
 282 550 l 1,10,-1
 242 324 l 1,11,-1
 496 324 l 1,12,-1
 535 550 l 1,13,-1
 665 550 l 1,0,-1
EndSplineSet
EndChar

StartChar: five
Encoding: 53 53 24
Width: 629
Flags: W
LayerCount: 2
Fore
SplineSet
272 428 m 1,0,-1
 255 338 l 1,1,-1
 528 338 l 2,2,3
 570 338 570 338 596 311 c 0,4,5
 621 285 621 285 613 238 c 2,6,-1
 571 0 l 1,7,-1
 59 0 l 1,8,-1
 81 123 l 1,9,-1
 455 123 l 1,10,-1
 473 220 l 1,11,-1
 201 220 l 2,12,13
 160 220 160 220 132 243 c 0,14,15
 106 266 106 266 114 312 c 2,16,-1
 156 550 l 1,17,-1
 668 550 l 1,18,-1
 647 428 l 1,19,-1
 272 428 l 1,0,-1
EndSplineSet
EndChar

StartChar: six
Encoding: 54 54 25
Width: 629
Flags: W
LayerCount: 2
Fore
SplineSet
647 427 m 1,0,-1
 281 427 l 1,1,-1
 266 348 l 1,2,-1
 632 348 l 1,3,-1
 571 0 l 1,4,-1
 161 0 l 2,5,6
 97 0 97 0 82 20 c 0,7,8
 66 42 66 42 78 110 c 2,9,-1
 156 550 l 1,10,-1
 668 550 l 1,11,-1
 647 427 l 1,0,-1
469 229 m 1,12,-1
 238 229 l 1,13,-1
 218 125 l 1,14,-1
 449 125 l 1,15,-1
 469 229 l 1,12,-1
EndSplineSet
EndChar

StartChar: seven
Encoding: 55 55 26
Width: 629
Flags: W
LayerCount: 2
Fore
SplineSet
648 440 m 2,0,-1
 571 0 l 1,1,-1
 438 1 l 1,2,-1
 514 429 l 1,3,-1
 135 428 l 1,4,-1
 156 550 l 1,5,-1
 565 550 l 2,6,7
 606 550 606 550 632 518 c 0,8,9
 656 487 656 487 648 440 c 2,0,-1
EndSplineSet
EndChar

StartChar: eight
Encoding: 56 56 27
Width: 629
Flags: W
LayerCount: 2
Fore
SplineSet
119 327 m 2,0,-1
 139 440 l 2,1,2
 147 486 147 486 182.084464555 518.077224736 c 128,-1,3
 217 550 217 550 260 550 c 2,4,-1
 567 550 l 2,5,6
 608 550 608 550 634 518 c 0,7,8
 658.259303721 486.665066026 658.259303721 486.665066026 650 440 c 2,9,-1
 630 327 l 0,10,11
 623 288 623 288 612 223 c 2,12,-1
 592 110 l 2,13,14
 584 63 584 63 548 32 c 0,15,16
 511 0 511 0 470 0 c 2,17,-1
 163 0 l 2,18,19
 122 0 122 0 96 32 c 4,20,21
 71 61 71 61 80 110 c 6,22,-1
 119 327 l 2,0,-1
464 119 m 1,23,-1
 483 224 l 1,24,-1
 225 225 l 1,25,-1
 206 120 l 1,26,-1
 464 119 l 1,23,-1
498 328 m 1,27,-1
 517 429 l 1,28,-1
 267 429 l 1,29,-1
 248 328 l 1,30,-1
 498 328 l 1,27,-1
EndSplineSet
EndChar

StartChar: nine
Encoding: 57 57 28
Width: 629
InSpiro: 1
Flags: WO
LayerCount: 2
Fore
SplineSet
108 278 m 0,0,1
 137 440 l 2,2,3
 148 503 148 503 172 525 c 0,4,5
 200 550 200 550 258 550 c 2,6,-1
 565 550 l 2,7,8
 610 550 610 550 632 518 c 0,9,10
 655.961159063 484.055024661 655.961159063 484.055024661 647 433 c 2,11,-1
 571 0 l 1,12,-1
 72 0 l 1,13,-1
 93 115 l 1,14,-1
 460 115 l 1,15,-1
 475 202 l 1,16,-1
 170 202 l 0,17,18
 132 204 132 204 116 227 c 0,19,20
 103 247 103 247 108 278 c 0,0,1
  Spiro
    108 278 o
    137 440 ]
    151.25 492.75 o
    172 525 o
    207.5 543.75 o
    258 550 [
    565 550 ]
    604.25 542 o
    632 518 o
    647.731 479.778 o
    647 433 [
    571 0 v
    72 0 v
    93 115 v
    460 115 v
    475 202 v
    170 202 [
    137.5 209.25 o
    116 227 o
    107.5 249.75 o
    0 0 z
  EndSpiro
103.830985915 252.042253521 m 1025,21,-1
  Spiro
    103.831 252.042 {
    0 0 z
  EndSpiro
501 322 m 1,22,-1
 521 428 l 1,23,-1
 263 427 l 1,24,-1
 243 321 l 1,25,-1
 501 322 l 1,22,-1
  Spiro
    501 322 v
    521 428 v
    263 427 v
    243 321 v
    0 0 z
  EndSpiro
EndSplineSet
EndChar

StartChar: colon
Encoding: 58 58 29
Width: 230
Flags: W
LayerCount: 2
Fore
SplineSet
99 301 m 1,0,-1
 125 447 l 1,1,-1
 261 447 l 1,2,-1
 236 301 l 1,3,-1
 99 301 l 1,0,-1
64 99 m 1,4,-1
 89 246 l 1,5,-1
 226 246 l 1,6,-1
 200 99 l 1,7,-1
 64 99 l 1,4,-1
EndSplineSet
EndChar

StartChar: semicolon
Encoding: 59 59 30
Width: 322
Flags: W
LayerCount: 2
Fore
SplineSet
181 303 m 1,0,-1
 207 450 l 1,1,-1
 344 450 l 1,2,-1
 318 303 l 1,3,-1
 181 303 l 1,0,-1
308 248 m 1,4,-1
 197 20 l 1,5,-1
 61 20 l 1,6,-1
 172 248 l 1,7,-1
 308 248 l 1,4,-1
EndSplineSet
EndChar

StartChar: equal
Encoding: 61 61 32
Width: 421
Flags: W
LayerCount: 2
Fore
SplineSet
45 102 m 1,0,-1
 62 201 l 1,1,-1
 430 201 l 1,2,-1
 413 102 l 1,3,-1
 45 102 l 1,0,-1
72 256 m 1,4,-1
 90 355 l 1,5,-1
 457 355 l 1,6,-1
 440 256 l 1,7,-1
 72 256 l 1,4,-1
EndSplineSet
EndChar

StartChar: question
Encoding: 63 63 34
Width: 407
Flags: W
LayerCount: 2
Fore
SplineSet
246 147 m 1,0,-1
 220 0 l 1,1,-1
 49 0 l 1,2,-1
 75 147 l 1,3,-1
 246 147 l 1,0,-1
422 376 m 0,4,5
 408 304 408 304 353 253 c 128,-1,6
 298 202 298 202 230 202 c 2,7,-1
 85 202 l 1,8,-1
 111 348 l 1,9,-1
 255 348 l 2,10,11
 264 348 264 348 274 356 c 0,12,13
 284 365 284 365 286 376 c 0,14,15
 288 388 288 388 282 395 c 0,16,17
 276 403 276 403 265 403 c 2,18,-1
 120 403 l 1,19,-1
 146 550 l 1,20,-1
 291 550 l 2,21,22
 358 550 358 550 396 499 c 0,23,24
 435 447 435 447 422 376 c 0,4,5
EndSplineSet
EndChar

StartChar: at
Encoding: 64 64 35
Width: 593
Flags: W
LayerCount: 2
Fore
SplineSet
448 236 m 1,0,-1
 594 236 l 1,1,-1
 560 39 l 2,2,3
 557 22 557 22 544 12 c 0,4,5
 530 0 530 0 516 0 c 2,6,-1
 77 0 l 2,7,8
 62 0 62 0 54 12 c 0,9,10
 45 22 45 22 48 39 c 2,11,-1
 131 511 l 2,12,13
 134 528 134 528 146 540 c 0,14,15
 160 551 160 551 174 551 c 2,16,-1
 613 551 l 2,17,18
 628 551 628 551 637 539 c 128,-1,19
 646 527 646 527 643 511 c 2,20,-1
 608 315 l 1,21,-1
 535 315 l 1,22,-1
 563 472 l 1,23,-1
 197 472 l 1,24,-1
 128 79 l 1,25,-1
 493 79 l 1,26,-1
 507 157 l 1,27,-1
 215 157 l 1,28,-1
 256 393 l 1,29,-1
 476 393 l 1,30,-1
 448 236 l 1,0,-1
375 236 m 1,31,-1
 389 315 l 1,32,-1
 316 315 l 1,33,-1
 302 236 l 1,34,-1
 375 236 l 1,31,-1
EndSplineSet
EndChar

StartChar: A
Encoding: 65 65 36
Width: 741
Flags: W
LayerCount: 2
Fore
SplineSet
669 550 m 2,0,1
 710 550 710 550 736 518 c 0,2,3
 760 487 760 487 752 440 c 2,4,-1
 675 0 l 1,5,-1
 504 0 l 1,6,-1
 536 183 l 1,7,-1
 263 183 l 1,8,-1
 231 0 l 1,9,-1
 61 0 l 1,10,-1
 138 440 l 2,11,12
 145 486 145 486 182 518 c 128,-1,13
 219 550 219 550 260 550 c 2,14,-1
 669 550 l 2,0,1
562 330 m 1,15,-1
 575 403 l 1,16,-1
 302 403 l 1,17,-1
 289 330 l 1,18,-1
 562 330 l 1,15,-1
EndSplineSet
EndChar

StartChar: B
Encoding: 66 66 37
Width: 741
Flags: W
LayerCount: 2
Fore
SplineSet
672 550 m 2,0,1
 714 550 714 550 738 518 c 0,2,3
 763 488 763 488 755 440 c 2,4,-1
 735 327 l 2,5,6
 732 311 732 311 720 296 c 0,7,8
 706 279 706 279 692 275 c 1,9,10
 706 270 706 270 712 254 c 0,11,12
 720 240 720 240 717 223 c 2,13,-1
 697 110 l 2,14,15
 690 64 690 64 653 32 c 128,-1,16
 616 0 616 0 575 0 c 2,17,-1
 64 0 l 1,18,-1
 161 550 l 1,19,-1
 672 550 l 2,0,1
533 147 m 1,20,-1
 543 202 l 1,21,-1
 270 202 l 1,22,-1
 260 147 l 1,23,-1
 533 147 l 1,20,-1
568 348 m 1,24,-1
 578 403 l 1,25,-1
 305 403 l 1,26,-1
 296 348 l 1,27,-1
 568 348 l 1,24,-1
EndSplineSet
EndChar

StartChar: C
Encoding: 67 67 38
Width: 741
Flags: W
LayerCount: 2
Fore
SplineSet
305 403 m 1,0,-1
 260 147 l 1,1,-1
 703 147 l 1,2,-1
 678 0 l 1,3,-1
 166 0 l 2,4,5
 124 0 124 0 100 32 c 0,6,7
 75 62 75 62 83 110 c 2,8,-1
 141 440 l 2,9,10
 148 486 148 486 185 518 c 128,-1,11
 222 550 222 550 263 550 c 2,12,-1
 775 550 l 1,13,-1
 749 403 l 1,14,-1
 305 403 l 1,0,-1
EndSplineSet
EndChar

StartChar: D
Encoding: 68 68 39
Width: 741
Flags: W
LayerCount: 2
Fore
SplineSet
672 550 m 2,0,1
 714 550 714 550 738 518 c 0,2,3
 763 488 763 488 755 440 c 2,4,-1
 697 110 l 2,5,6
 690 64 690 64 653 32 c 128,-1,7
 616 0 616 0 575 0 c 2,8,-1
 64 0 l 1,9,-1
 161 550 l 1,10,-1
 672 550 l 2,0,1
533 147 m 1,11,-1
 578 403 l 1,12,-1
 305 403 l 1,13,-1
 260 147 l 1,14,-1
 533 147 l 1,11,-1
EndSplineSet
EndChar

StartChar: E
Encoding: 69 69 40
Width: 741
Flags: W
LayerCount: 2
Fore
SplineSet
305 403 m 1,0,-1
 296 348 l 1,1,-1
 662 348 l 1,2,-1
 636 202 l 1,3,-1
 270 202 l 1,4,-1
 260 147 l 1,5,-1
 703 147 l 1,6,-1
 678 0 l 1,7,-1
 166 0 l 2,8,9
 124 0 124 0 100 32 c 0,10,11
 75 62 75 62 83 110 c 2,12,-1
 141 440 l 2,13,14
 148 486 148 486 185 518 c 128,-1,15
 222 550 222 550 263 550 c 2,16,-1
 775 550 l 1,17,-1
 749 403 l 1,18,-1
 305 403 l 1,0,-1
EndSplineSet
EndChar

StartChar: F
Encoding: 70 70 41
Width: 741
Flags: W
LayerCount: 2
Fore
SplineSet
305 403 m 1,0,-1
 292 330 l 1,1,-1
 668 330 l 1,2,-1
 642 183 l 1,3,-1
 267 183 l 1,4,-1
 234 0 l 1,5,-1
 64 0 l 1,6,-1
 141 440 l 2,7,8
 148 486 148 486 185 518 c 128,-1,9
 222 550 222 550 263 550 c 2,10,-1
 775 550 l 1,11,-1
 749 403 l 1,12,-1
 305 403 l 1,0,-1
EndSplineSet
EndChar

StartChar: G
Encoding: 71 71 42
Width: 741
Flags: W
LayerCount: 2
Fore
SplineSet
305 403 m 1,0,-1
 260 147 l 1,1,-1
 533 147 l 1,2,-1
 543 202 l 1,3,-1
 321 202 l 1,4,-1
 347 348 l 1,5,-1
 739 348 l 1,6,-1
 678 0 l 1,7,-1
 166 0 l 2,8,9
 124 0 124 0 100 32 c 0,10,11
 75 62 75 62 83 110 c 2,12,-1
 141 440 l 2,13,14
 148 486 148 486 185 518 c 128,-1,15
 222 550 222 550 263 550 c 2,16,-1
 775 550 l 1,17,-1
 749 403 l 1,18,-1
 305 403 l 1,0,-1
EndSplineSet
EndChar

StartChar: H
Encoding: 72 72 43
Width: 741
Flags: W
LayerCount: 2
Fore
SplineSet
775 550 m 1,0,-1
 678 0 l 1,1,-1
 507 0 l 1,2,-1
 543 202 l 1,3,-1
 270 202 l 1,4,-1
 234 0 l 1,5,-1
 64 0 l 1,6,-1
 161 550 l 1,7,-1
 331 550 l 1,8,-1
 296 348 l 1,9,-1
 568 348 l 1,10,-1
 604 550 l 1,11,-1
 775 550 l 1,0,-1
EndSplineSet
EndChar

StartChar: I
Encoding: 73 73 44
Width: 258
Flags: W
LayerCount: 2
Fore
SplineSet
44 0 m 1,0,-1
 141 550 l 1,1,-1
 311 550 l 1,2,-1
 214 0 l 1,3,-1
 44 0 l 1,0,-1
EndSplineSet
EndChar

StartChar: J
Encoding: 74 74 45
Width: 741
Flags: W
LayerCount: 2
Fore
SplineSet
775 550 m 1,0,-1
 697 110 l 2,1,2
 690 64 690 64 653 32 c 128,-1,3
 616 0 616 0 575 0 c 2,4,-1
 64 0 l 1,5,-1
 115 293 l 1,6,-1
 286 293 l 1,7,-1
 260 147 l 1,8,-1
 533 147 l 1,9,-1
 604 550 l 1,10,-1
 775 550 l 1,0,-1
EndSplineSet
EndChar

StartChar: K
Encoding: 75 75 46
Width: 741
Flags: W
LayerCount: 2
Fore
SplineSet
526 275 m 1,0,-1
 678 0 l 1,1,-1
 461 0 l 1,2,-1
 350 202 l 1,3,-1
 270 202 l 1,4,-1
 234 0 l 1,5,-1
 64 0 l 1,6,-1
 161 550 l 1,7,-1
 331 550 l 1,8,-1
 296 348 l 1,9,-1
 376 348 l 1,10,-1
 558 550 l 1,11,-1
 775 550 l 1,12,-1
 526 275 l 1,0,-1
EndSplineSet
EndChar

StartChar: L
Encoding: 76 76 47
Width: 741
Flags: W
LayerCount: 2
Fore
SplineSet
703 147 m 1,0,-1
 678 0 l 1,1,-1
 166 0 l 2,2,3
 124 0 124 0 100 32 c 0,4,5
 75 62 75 62 83 110 c 2,6,-1
 161 550 l 1,7,-1
 331 550 l 1,8,-1
 260 147 l 1,9,-1
 703 147 l 1,0,-1
EndSplineSet
EndChar

StartChar: M
Encoding: 77 77 48
Width: 806
Flags: W
LayerCount: 2
Fore
SplineSet
823 440 m 2,0,-1
 745 0 l 1,1,-1
 575 0 l 1,2,-1
 625 288 l 1,3,-1
 404 0 l 1,4,-1
 284 288 l 1,5,-1
 234 0 l 1,6,-1
 63 0 l 1,7,-1
 141 440 l 2,8,9
 148 485 148 485 184 518 c 0,10,11
 221 550 221 550 262 550 c 2,12,-1
 337 550 l 1,13,-1
 452 273 l 1,14,-1
 665 550 l 1,15,-1
 740 550 l 2,16,17
 782 550 782 550 806 518 c 0,18,19
 831 488 831 488 823 440 c 2,0,-1
EndSplineSet
EndChar

StartChar: N
Encoding: 78 78 49
Width: 741
Flags: W
LayerCount: 2
Fore
SplineSet
775 550 m 1,0,-1
 692 73 l 2,1,2
 682.53659338 18.613916171 682.53659338 18.613916171 671.048828125 9.04296875 c 4,3,4
 661 0 661 0 622 0 c 2,5,-1
 524 0 l 1,6,-1
 270 372 l 1,7,-1
 206 0 l 1,8,-1
 64 0 l 1,9,-1
 141 440 l 2,10,11
 156 527 156 527 168.958007812 538.973632812 c 0,12,13
 183.354475266 551.303592941 183.354475266 551.303592941 221 551 c 2,14,-1
 345 550 l 1,15,-1
 572 179 l 1,16,-1
 634 550 l 1,17,-1
 775 550 l 1,0,-1
EndSplineSet
EndChar

StartChar: O
Encoding: 79 79 50
Width: 741
Flags: W
LayerCount: 2
Fore
SplineSet
533 147 m 1,0,-1
 578 403 l 1,1,-1
 305 403 l 1,2,-1
 260 147 l 1,3,-1
 533 147 l 1,0,-1
672 550 m 2,4,5
 714 550 714 550 738 518 c 0,6,7
 763 488 763 488 755 440 c 2,8,-1
 697 110 l 2,9,10
 690 64 690 64 653 32 c 128,-1,11
 616 0 616 0 575 0 c 2,12,-1
 166 0 l 2,13,14
 124 0 124 0 100 32 c 0,15,16
 75 62 75 62 83 110 c 2,17,-1
 141 440 l 2,18,19
 148 486 148 486 185 518 c 128,-1,20
 222 550 222 550 263 550 c 2,21,-1
 672 550 l 2,4,5
EndSplineSet
EndChar

StartChar: P
Encoding: 80 80 51
Width: 741
Flags: W
LayerCount: 2
Fore
SplineSet
672 550 m 2,0,1
 714 550 714 550 738 518 c 0,2,3
 763 488 763 488 755 440 c 2,4,-1
 729 293 l 2,5,6
 722 248 722 248 686 215 c 0,7,8
 649 183 649 183 608 183 c 2,9,-1
 267 183 l 1,10,-1
 234 0 l 1,11,-1
 64 0 l 1,12,-1
 161 550 l 1,13,-1
 672 550 l 2,0,1
565 330 m 1,14,-1
 578 403 l 1,15,-1
 305 403 l 1,16,-1
 292 330 l 1,17,-1
 565 330 l 1,14,-1
EndSplineSet
EndChar

StartChar: Q
Encoding: 81 81 52
Width: 741
Flags: W
LayerCount: 2
Fore
SplineSet
689 67 m 1,0,-1
 714 34 l 1,1,-1
 677 0 l 1,2,-1
 599 -70 l 1,3,-1
 546 0 l 1,4,-1
 165 0 l 2,5,6
 124 0 124 0 98 32 c 0,7,8
 74 63 74 63 82 110 c 2,9,-1
 141 440 l 2,10,11
 148 485 148 485 184 518 c 0,12,13
 221 550 221 550 262 550 c 2,14,-1
 672 550 l 2,15,16
 714 550 714 550 738 518 c 0,17,18
 762 487 762 487 754 440 c 2,19,-1
 689 67 l 1,0,-1
550 250 m 1,20,-1
 577 403 l 1,21,-1
 305 403 l 1,22,-1
 259 147 l 1,23,-1
 436 147 l 1,24,-1
 392 205 l 1,25,-1
 507 309 l 1,26,-1
 550 250 l 1,20,-1
EndSplineSet
EndChar

StartChar: R
Encoding: 82 82 53
Width: 741
Flags: W
LayerCount: 2
Fore
SplineSet
672 550 m 2,0,1
 714 550 714 550 738 518 c 0,2,3
 763 488 763 488 755 440 c 2,4,-1
 729 293 l 2,5,6
 722 248 722 248 686 215 c 0,7,8
 649 183 649 183 608 183 c 2,9,-1
 567 183 l 1,10,-1
 678 0 l 1,11,-1
 500 0 l 1,12,-1
 389 183 l 1,13,-1
 267 183 l 1,14,-1
 234 0 l 1,15,-1
 64 0 l 1,16,-1
 161 550 l 1,17,-1
 672 550 l 2,0,1
565 330 m 1,18,-1
 578 403 l 1,19,-1
 305 403 l 1,20,-1
 292 330 l 1,21,-1
 565 330 l 1,18,-1
EndSplineSet
EndChar

StartChar: S
Encoding: 83 83 54
Width: 741
Flags: W
LayerCount: 2
Fore
SplineSet
739 348 m 1,0,-1
 713 202 l 1,1,-1
 739 348 l 1,0,-1
305 403 m 1,2,-1
 295 348 l 1,3,-1
 739 348 l 1,4,-1
 697 110 l 2,5,6
 697 108 697 108 696 108 c 1,7,-1
 696 105 l 1,8,9
 685 61 685 61 650 30 c 0,10,11
 616 0 616 0 575 0 c 2,12,-1
 64 0 l 1,13,-1
 90 147 l 1,14,-1
 533 147 l 1,15,-1
 543 202 l 1,16,-1
 99 202 l 1,17,-1
 141 440 l 2,18,19
 141 442 141 442 142 442 c 1,20,-1
 142 445 l 1,21,22
 153 489 153 489 188 520 c 0,23,24
 222 550 222 550 263 550 c 2,25,-1
 775 550 l 1,26,-1
 749 403 l 1,27,-1
 305 403 l 1,2,-1
EndSplineSet
EndChar

StartChar: T
Encoding: 84 84 55
Width: 741
Flags: W
LayerCount: 2
Fore
SplineSet
781 550 m 1,0,-1
 755 403 l 1,1,-1
 533 403 l 1,2,-1
 462 0 l 1,3,-1
 291 0 l 1,4,-1
 363 403 l 1,5,-1
 141 403 l 1,6,-1
 167 550 l 1,7,-1
 781 550 l 1,0,-1
EndSplineSet
EndChar

StartChar: U
Encoding: 85 85 56
Width: 741
Flags: W
LayerCount: 2
Fore
SplineSet
771 550 m 1,0,-1
 693 110 l 2,1,2
 686 65 686 65 650 32 c 0,3,4
 613 0 613 0 572 0 c 2,5,-1
 162 0 l 2,6,7
 120 0 120 0 96 32 c 0,8,9
 71 62 71 62 79 110 c 2,10,-1
 157 550 l 1,11,-1
 327 550 l 1,12,-1
 256 147 l 1,13,-1
 529 147 l 1,14,-1
 600 550 l 1,15,-1
 771 550 l 1,0,-1
EndSplineSet
EndChar

StartChar: V
Encoding: 86 86 57
Width: 741
Flags: W
LayerCount: 2
Fore
SplineSet
585 550 m 1,0,-1
 773 550 l 1,1,-1
 438 0 l 1,2,-1
 301 0 l 1,3,-1
 159 550 l 1,4,-1
 348 550 l 1,5,-1
 418 276 l 1,6,-1
 585 550 l 1,0,-1
EndSplineSet
EndChar

StartChar: W
Encoding: 87 87 58
Width: 993
Flags: W
LayerCount: 2
Fore
SplineSet
1042 550 m 1,0,-1
 843 110 l 2,1,2
 822 64 822 64 777 32 c 0,3,4
 731 0 731 0 690 0 c 2,5,-1
 615 0 l 1,6,-1
 556 341 l 1,7,-1
 377 0 l 1,8,-1
 302 0 l 2,9,10
 261 0 261 0 226 32 c 0,11,12
 193 62 193 62 188 110 c 2,13,-1
 144 550 l 1,14,-1
 322 550 l 1,15,-1
 354 233 l 1,16,-1
 520 550 l 1,17,-1
 666 550 l 1,18,-1
 720 233 l 1,19,-1
 864 550 l 1,20,-1
 1042 550 l 1,0,-1
EndSplineSet
EndChar

StartChar: X
Encoding: 88 88 59
Width: 741
Flags: W
LayerCount: 2
Fore
SplineSet
531 275 m 1,0,-1
 681 0 l 1,1,-1
 465 0 l 1,2,-1
 396 126 l 1,3,-1
 283 0 l 1,4,-1
 67 0 l 1,5,-1
 315 275 l 1,6,-1
 164 550 l 1,7,-1
 380 550 l 1,8,-1
 449 424 l 1,9,-1
 562 550 l 1,10,-1
 778 550 l 1,11,-1
 531 275 l 1,0,-1
EndSplineSet
EndChar

StartChar: Y
Encoding: 89 89 60
Width: 741
Flags: W
LayerCount: 2
Fore
SplineSet
771 550 m 1,0,-1
 693 110 l 2,1,2
 686 65 686 65 650 32 c 0,3,4
 613 0 613 0 572 0 c 2,5,-1
 60 0 l 1,6,-1
 66 37 l 2,7,8
 73 83 73 83 110 115 c 128,-1,9
 147 147 147 147 188 147 c 2,10,-1
 495 147 l 2,11,12
 510 147 510 147 521 158 c 0,13,14
 533 167 533 167 536 183 c 2,15,-1
 539 202 l 1,16,-1
 198 202 l 2,17,18
 156 202 156 202 132 234 c 0,19,20
 107 264 107 264 115 312 c 2,21,-1
 157 550 l 1,22,-1
 327 550 l 1,23,-1
 292 348 l 1,24,-1
 531 348 l 2,25,26
 545 348 545 348 556 359 c 0,27,28
 568 369 568 369 571 385 c 2,29,-1
 600 550 l 1,30,-1
 771 550 l 1,0,-1
EndSplineSet
EndChar

StartChar: Z
Encoding: 90 90 61
Width: 741
Flags: W
LayerCount: 2
Fore
SplineSet
750 440 m 2,0,-1
 737 369 l 1,1,-1
 359 147 l 1,2,-1
 698 147 l 1,3,-1
 672 0 l 1,4,-1
 160 0 l 2,5,6
 118 0 118 0 94 32 c 0,7,8
 70 63 70 63 78 110 c 2,9,-1
 90 181 l 1,10,-1
 468 403 l 1,11,-1
 129 403 l 1,12,-1
 155 550 l 1,13,-1
 667 550 l 2,14,15
 708 550 708 550 734 518 c 0,16,17
 758 487 758 487 750 440 c 2,0,-1
EndSplineSet
EndChar

StartChar: bracketleft
Encoding: 91 91 62
Width: 305
Flags: W
LayerCount: 2
Fore
SplineSet
279 428 m 1,0,-1
 234 172 l 1,1,-1
 302 172 l 1,2,-1
 276 25 l 1,3,-1
 140 25 l 2,4,5
 98 25 98 25 74 57 c 0,6,7
 49 87 49 87 57 135 c 2,8,-1
 115 465 l 2,9,10
 122 511 122 511 159 543 c 128,-1,11
 196 575 196 575 237 575 c 2,12,-1
 373 575 l 1,13,-1
 348 428 l 1,14,-1
 279 428 l 1,0,-1
EndSplineSet
EndChar

StartChar: backslash
Encoding: 92 92 63
Width: 556
Flags: W
LayerCount: 2
Fore
SplineSet
142 551 m 1,0,-1
 313 551 l 1,1,-1
 511 0 l 1,2,-1
 341 0 l 1,3,-1
 142 551 l 1,0,-1
EndSplineSet
EndChar

StartChar: bracketright
Encoding: 93 93 64
Width: 305
Flags: W
LayerCount: 2
Fore
SplineSet
348 440 m 2,0,-1
 290 110 l 2,1,2
 283 64 283 64 246 32 c 128,-1,3
 209 0 209 0 168 0 c 2,4,-1
 32 0 l 1,5,-1
 58 147 l 1,6,-1
 126 147 l 1,7,-1
 171 403 l 1,8,-1
 103 403 l 1,9,-1
 129 550 l 1,10,-1
 265 550 l 2,11,12
 306 550 306 550 332 518 c 0,13,14
 356 487 356 487 348 440 c 2,0,-1
EndSplineSet
EndChar

StartChar: underscore
Encoding: 95 95 66
Width: 714
Flags: W
LayerCount: 2
Fore
SplineSet
55 157 m 1,0,-1
 714 157 l 1,1,-1
 686 0 l 1,2,-1
 27 0 l 1,3,-1
 55 157 l 1,0,-1
EndSplineSet
EndChar

StartChar: a
Encoding: 97 97 67
Width: 741
Flags: W
LayerCount: 2
Fore
SplineSet
669 550 m 2,0,1
 710 550 710 550 736 518 c 0,2,3
 760 487 760 487 752 440 c 2,4,-1
 675 0 l 1,5,-1
 504 0 l 1,6,-1
 536 183 l 1,7,-1
 263 183 l 1,8,-1
 231 0 l 1,9,-1
 61 0 l 1,10,-1
 138 440 l 2,11,12
 145 486 145 486 182 518 c 128,-1,13
 219 550 219 550 260 550 c 2,14,-1
 669 550 l 2,0,1
562 330 m 1,15,-1
 575 403 l 1,16,-1
 302 403 l 1,17,-1
 289 330 l 1,18,-1
 562 330 l 1,15,-1
EndSplineSet
EndChar

StartChar: b
Encoding: 98 98 68
Width: 741
Flags: W
LayerCount: 2
Fore
SplineSet
672 550 m 2,0,1
 714 550 714 550 738 518 c 0,2,3
 763 488 763 488 755 440 c 2,4,-1
 735 327 l 2,5,6
 732 311 732 311 720 296 c 0,7,8
 706 279 706 279 692 275 c 1,9,10
 706 270 706 270 712 254 c 0,11,12
 720 240 720 240 717 223 c 2,13,-1
 697 110 l 2,14,15
 690 64 690 64 653 32 c 128,-1,16
 616 0 616 0 575 0 c 2,17,-1
 64 0 l 1,18,-1
 161 550 l 1,19,-1
 672 550 l 2,0,1
533 147 m 1,20,-1
 543 202 l 1,21,-1
 270 202 l 1,22,-1
 260 147 l 1,23,-1
 533 147 l 1,20,-1
568 348 m 1,24,-1
 578 403 l 1,25,-1
 305 403 l 1,26,-1
 296 348 l 1,27,-1
 568 348 l 1,24,-1
EndSplineSet
EndChar

StartChar: c
Encoding: 99 99 69
Width: 741
Flags: W
LayerCount: 2
Fore
SplineSet
305 403 m 1,0,-1
 260 147 l 1,1,-1
 703 147 l 1,2,-1
 678 0 l 1,3,-1
 166 0 l 2,4,5
 124 0 124 0 100 32 c 0,6,7
 75 62 75 62 83 110 c 2,8,-1
 141 440 l 2,9,10
 148 486 148 486 185 518 c 128,-1,11
 222 550 222 550 263 550 c 2,12,-1
 775 550 l 1,13,-1
 749 403 l 1,14,-1
 305 403 l 1,0,-1
EndSplineSet
EndChar

StartChar: d
Encoding: 100 100 70
Width: 741
Flags: W
LayerCount: 2
Fore
SplineSet
672 550 m 2,0,1
 714 550 714 550 738 518 c 0,2,3
 763 488 763 488 755 440 c 2,4,-1
 697 110 l 2,5,6
 690 64 690 64 653 32 c 128,-1,7
 616 0 616 0 575 0 c 2,8,-1
 64 0 l 1,9,-1
 161 550 l 1,10,-1
 672 550 l 2,0,1
533 147 m 1,11,-1
 578 403 l 1,12,-1
 305 403 l 1,13,-1
 260 147 l 1,14,-1
 533 147 l 1,11,-1
EndSplineSet
EndChar

StartChar: e
Encoding: 101 101 71
Width: 741
Flags: W
LayerCount: 2
Fore
SplineSet
305 403 m 1,0,-1
 296 348 l 1,1,-1
 662 348 l 1,2,-1
 636 202 l 1,3,-1
 270 202 l 1,4,-1
 260 147 l 1,5,-1
 703 147 l 1,6,-1
 678 0 l 1,7,-1
 166 0 l 2,8,9
 124 0 124 0 100 32 c 0,10,11
 75 62 75 62 83 110 c 2,12,-1
 141 440 l 2,13,14
 148 486 148 486 185 518 c 128,-1,15
 222 550 222 550 263 550 c 2,16,-1
 775 550 l 1,17,-1
 749 403 l 1,18,-1
 305 403 l 1,0,-1
EndSplineSet
EndChar

StartChar: f
Encoding: 102 102 72
Width: 741
Flags: W
LayerCount: 2
Fore
SplineSet
305 403 m 1,0,-1
 292 330 l 1,1,-1
 668 330 l 1,2,-1
 642 183 l 1,3,-1
 267 183 l 1,4,-1
 234 0 l 1,5,-1
 64 0 l 1,6,-1
 141 440 l 2,7,8
 148 486 148 486 185 518 c 128,-1,9
 222 550 222 550 263 550 c 2,10,-1
 775 550 l 1,11,-1
 749 403 l 1,12,-1
 305 403 l 1,0,-1
EndSplineSet
EndChar

StartChar: g
Encoding: 103 103 73
Width: 741
Flags: W
LayerCount: 2
Fore
SplineSet
305 403 m 1,0,-1
 260 147 l 1,1,-1
 533 147 l 1,2,-1
 543 202 l 1,3,-1
 321 202 l 1,4,-1
 347 348 l 1,5,-1
 739 348 l 1,6,-1
 678 0 l 1,7,-1
 166 0 l 2,8,9
 124 0 124 0 100 32 c 0,10,11
 75 62 75 62 83 110 c 2,12,-1
 141 440 l 2,13,14
 148 486 148 486 185 518 c 128,-1,15
 222 550 222 550 263 550 c 2,16,-1
 775 550 l 1,17,-1
 749 403 l 1,18,-1
 305 403 l 1,0,-1
EndSplineSet
EndChar

StartChar: h
Encoding: 104 104 74
Width: 741
Flags: W
LayerCount: 2
Fore
SplineSet
775 550 m 1,0,-1
 678 0 l 1,1,-1
 507 0 l 1,2,-1
 543 202 l 1,3,-1
 270 202 l 1,4,-1
 234 0 l 1,5,-1
 64 0 l 1,6,-1
 161 550 l 1,7,-1
 331 550 l 1,8,-1
 296 348 l 1,9,-1
 568 348 l 1,10,-1
 604 550 l 1,11,-1
 775 550 l 1,0,-1
EndSplineSet
EndChar

StartChar: i
Encoding: 105 105 75
Width: 258
Flags: W
LayerCount: 2
Fore
SplineSet
44 0 m 1,0,-1
 141 550 l 1,1,-1
 311 550 l 1,2,-1
 214 0 l 1,3,-1
 44 0 l 1,0,-1
EndSplineSet
EndChar

StartChar: j
Encoding: 106 106 76
Width: 741
Flags: W
LayerCount: 2
Fore
SplineSet
775 550 m 1,0,-1
 697 110 l 2,1,2
 690 64 690 64 653 32 c 128,-1,3
 616 0 616 0 575 0 c 2,4,-1
 64 0 l 1,5,-1
 115 293 l 1,6,-1
 286 293 l 1,7,-1
 260 147 l 1,8,-1
 533 147 l 1,9,-1
 604 550 l 1,10,-1
 775 550 l 1,0,-1
EndSplineSet
EndChar

StartChar: k
Encoding: 107 107 77
Width: 741
Flags: W
LayerCount: 2
Fore
SplineSet
526 275 m 1,0,-1
 678 0 l 1,1,-1
 461 0 l 1,2,-1
 350 202 l 1,3,-1
 270 202 l 1,4,-1
 234 0 l 1,5,-1
 64 0 l 1,6,-1
 161 550 l 1,7,-1
 331 550 l 1,8,-1
 296 348 l 1,9,-1
 376 348 l 1,10,-1
 558 550 l 1,11,-1
 775 550 l 1,12,-1
 526 275 l 1,0,-1
EndSplineSet
EndChar

StartChar: l
Encoding: 108 108 78
Width: 741
Flags: W
LayerCount: 2
Fore
SplineSet
703 147 m 1,0,-1
 678 0 l 1,1,-1
 166 0 l 2,2,3
 124 0 124 0 100 32 c 0,4,5
 75 62 75 62 83 110 c 2,6,-1
 161 550 l 1,7,-1
 331 550 l 1,8,-1
 260 147 l 1,9,-1
 703 147 l 1,0,-1
EndSplineSet
EndChar

StartChar: m
Encoding: 109 109 79
Width: 806
Flags: W
LayerCount: 2
Fore
SplineSet
823 440 m 2,0,-1
 745 0 l 1,1,-1
 575 0 l 1,2,-1
 625 288 l 1,3,-1
 404 0 l 1,4,-1
 284 288 l 1,5,-1
 234 0 l 1,6,-1
 63 0 l 1,7,-1
 141 440 l 2,8,9
 148 485 148 485 184 518 c 0,10,11
 221 550 221 550 262 550 c 2,12,-1
 337 550 l 1,13,-1
 452 273 l 1,14,-1
 665 550 l 1,15,-1
 740 550 l 2,16,17
 782 550 782 550 806 518 c 0,18,19
 831 488 831 488 823 440 c 2,0,-1
EndSplineSet
EndChar

StartChar: n
Encoding: 110 110 80
Width: 741
Flags: W
LayerCount: 2
Fore
SplineSet
775 550 m 1,0,-1
 697 110 l 2,1,2
 690 64 690 64 653 32 c 128,-1,3
 616 0 616 0 575 0 c 2,4,-1
 488 0 l 1,5,-1
 294 341 l 1,6,-1
 234 0 l 1,7,-1
 64 0 l 1,8,-1
 141 440 l 2,9,10
 148 486 148 486 185 518 c 128,-1,11
 222 550 222 550 263 550 c 2,12,-1
 350 550 l 1,13,-1
 544 209 l 1,14,-1
 604 550 l 1,15,-1
 775 550 l 1,0,-1
EndSplineSet
EndChar

StartChar: o
Encoding: 111 111 81
Width: 741
Flags: W
LayerCount: 2
Fore
SplineSet
533 147 m 1,0,-1
 578 403 l 1,1,-1
 305 403 l 1,2,-1
 260 147 l 1,3,-1
 533 147 l 1,0,-1
672 550 m 2,4,5
 714 550 714 550 738 518 c 0,6,7
 763 488 763 488 755 440 c 2,8,-1
 697 110 l 2,9,10
 690 64 690 64 653 32 c 128,-1,11
 616 0 616 0 575 0 c 2,12,-1
 166 0 l 2,13,14
 124 0 124 0 100 32 c 0,15,16
 75 62 75 62 83 110 c 2,17,-1
 141 440 l 2,18,19
 148 486 148 486 185 518 c 128,-1,20
 222 550 222 550 263 550 c 2,21,-1
 672 550 l 2,4,5
EndSplineSet
EndChar

StartChar: p
Encoding: 112 112 82
Width: 741
Flags: W
LayerCount: 2
Fore
SplineSet
672 550 m 2,0,1
 714 550 714 550 738 518 c 0,2,3
 763 488 763 488 755 440 c 2,4,-1
 729 293 l 2,5,6
 722 248 722 248 686 215 c 0,7,8
 649 183 649 183 608 183 c 2,9,-1
 267 183 l 1,10,-1
 234 0 l 1,11,-1
 64 0 l 1,12,-1
 161 550 l 1,13,-1
 672 550 l 2,0,1
565 330 m 1,14,-1
 578 403 l 1,15,-1
 305 403 l 1,16,-1
 292 330 l 1,17,-1
 565 330 l 1,14,-1
EndSplineSet
EndChar

StartChar: q
Encoding: 113 113 83
Width: 741
Flags: W
LayerCount: 2
Fore
SplineSet
689 67 m 1,0,-1
 714 34 l 1,1,-1
 677 0 l 1,2,-1
 599 -70 l 1,3,-1
 546 0 l 1,4,-1
 165 0 l 2,5,6
 124 0 124 0 98 32 c 0,7,8
 74 63 74 63 82 110 c 2,9,-1
 141 440 l 2,10,11
 148 485 148 485 184 518 c 0,12,13
 221 550 221 550 262 550 c 2,14,-1
 672 550 l 2,15,16
 714 550 714 550 738 518 c 0,17,18
 762 487 762 487 754 440 c 2,19,-1
 689 67 l 1,0,-1
550 250 m 1,20,-1
 577 403 l 1,21,-1
 305 403 l 1,22,-1
 259 147 l 1,23,-1
 436 147 l 1,24,-1
 392 205 l 1,25,-1
 507 309 l 1,26,-1
 550 250 l 1,20,-1
EndSplineSet
EndChar

StartChar: r
Encoding: 114 114 84
Width: 741
Flags: W
LayerCount: 2
Fore
SplineSet
672 550 m 2,0,1
 714 550 714 550 738 518 c 0,2,3
 763 488 763 488 755 440 c 2,4,-1
 729 293 l 2,5,6
 722 248 722 248 686 215 c 0,7,8
 649 183 649 183 608 183 c 2,9,-1
 567 183 l 1,10,-1
 678 0 l 1,11,-1
 500 0 l 1,12,-1
 389 183 l 1,13,-1
 267 183 l 1,14,-1
 234 0 l 1,15,-1
 64 0 l 1,16,-1
 161 550 l 1,17,-1
 672 550 l 2,0,1
565 330 m 1,18,-1
 578 403 l 1,19,-1
 305 403 l 1,20,-1
 292 330 l 1,21,-1
 565 330 l 1,18,-1
EndSplineSet
EndChar

StartChar: s
Encoding: 115 115 85
Width: 741
Flags: W
LayerCount: 2
Fore
SplineSet
739 348 m 1,0,-1
 713 202 l 1,1,-1
 739 348 l 1,0,-1
305 403 m 1,2,-1
 295 348 l 1,3,-1
 739 348 l 1,4,-1
 697 110 l 2,5,6
 697 108 697 108 696 108 c 1,7,-1
 696 105 l 1,8,9
 685 61 685 61 650 30 c 0,10,11
 616 0 616 0 575 0 c 2,12,-1
 64 0 l 1,13,-1
 90 147 l 1,14,-1
 533 147 l 1,15,-1
 543 202 l 1,16,-1
 99 202 l 1,17,-1
 141 440 l 2,18,19
 141 442 141 442 142 442 c 1,20,-1
 142 445 l 1,21,22
 153 489 153 489 188 520 c 0,23,24
 222 550 222 550 263 550 c 2,25,-1
 775 550 l 1,26,-1
 749 403 l 1,27,-1
 305 403 l 1,2,-1
EndSplineSet
EndChar

StartChar: t
Encoding: 116 116 86
Width: 741
Flags: W
LayerCount: 2
Fore
SplineSet
781 550 m 1,0,-1
 755 403 l 1,1,-1
 533 403 l 1,2,-1
 462 0 l 1,3,-1
 291 0 l 1,4,-1
 363 403 l 1,5,-1
 141 403 l 1,6,-1
 167 550 l 1,7,-1
 781 550 l 1,0,-1
EndSplineSet
EndChar

StartChar: u
Encoding: 117 117 87
Width: 741
Flags: W
LayerCount: 2
Fore
SplineSet
771 550 m 1,0,-1
 693 110 l 2,1,2
 686 65 686 65 650 32 c 0,3,4
 613 0 613 0 572 0 c 2,5,-1
 162 0 l 2,6,7
 120 0 120 0 96 32 c 0,8,9
 71 62 71 62 79 110 c 2,10,-1
 157 550 l 1,11,-1
 327 550 l 1,12,-1
 256 147 l 1,13,-1
 529 147 l 1,14,-1
 600 550 l 1,15,-1
 771 550 l 1,0,-1
EndSplineSet
EndChar

StartChar: v
Encoding: 118 118 88
Width: 741
Flags: W
LayerCount: 2
Fore
SplineSet
585 550 m 1,0,-1
 773 550 l 1,1,-1
 438 0 l 1,2,-1
 301 0 l 1,3,-1
 159 550 l 1,4,-1
 348 550 l 1,5,-1
 418 276 l 1,6,-1
 585 550 l 1,0,-1
EndSplineSet
EndChar

StartChar: w
Encoding: 119 119 89
Width: 993
Flags: W
LayerCount: 2
Fore
SplineSet
1042 550 m 1,0,-1
 843 110 l 2,1,2
 822 64 822 64 777 32 c 0,3,4
 731 0 731 0 690 0 c 2,5,-1
 615 0 l 1,6,-1
 556 341 l 1,7,-1
 377 0 l 1,8,-1
 302 0 l 2,9,10
 261 0 261 0 226 32 c 0,11,12
 193 62 193 62 188 110 c 2,13,-1
 144 550 l 1,14,-1
 322 550 l 1,15,-1
 354 233 l 1,16,-1
 520 550 l 1,17,-1
 666 550 l 1,18,-1
 720 233 l 1,19,-1
 864 550 l 1,20,-1
 1042 550 l 1,0,-1
EndSplineSet
EndChar

StartChar: x
Encoding: 120 120 90
Width: 741
Flags: W
LayerCount: 2
Fore
SplineSet
531 275 m 1,0,-1
 681 0 l 1,1,-1
 465 0 l 1,2,-1
 396 126 l 1,3,-1
 283 0 l 1,4,-1
 67 0 l 1,5,-1
 315 275 l 1,6,-1
 164 550 l 1,7,-1
 380 550 l 1,8,-1
 449 424 l 1,9,-1
 562 550 l 1,10,-1
 778 550 l 1,11,-1
 531 275 l 1,0,-1
EndSplineSet
EndChar

StartChar: y
Encoding: 121 121 91
Width: 741
Flags: W
LayerCount: 2
Fore
SplineSet
771 550 m 1,0,-1
 693 110 l 2,1,2
 686 65 686 65 650 32 c 0,3,4
 613 0 613 0 572 0 c 2,5,-1
 60 0 l 1,6,-1
 66 37 l 2,7,8
 73 83 73 83 110 115 c 128,-1,9
 147 147 147 147 188 147 c 2,10,-1
 495 147 l 2,11,12
 510 147 510 147 521 158 c 0,13,14
 533 167 533 167 536 183 c 2,15,-1
 539 202 l 1,16,-1
 198 202 l 2,17,18
 156 202 156 202 132 234 c 0,19,20
 107 264 107 264 115 312 c 2,21,-1
 157 550 l 1,22,-1
 327 550 l 1,23,-1
 292 348 l 1,24,-1
 531 348 l 2,25,26
 545 348 545 348 556 359 c 0,27,28
 568 369 568 369 571 385 c 2,29,-1
 600 550 l 1,30,-1
 771 550 l 1,0,-1
EndSplineSet
EndChar

StartChar: z
Encoding: 122 122 92
Width: 741
Flags: W
LayerCount: 2
Fore
SplineSet
750 440 m 2,0,-1
 737 369 l 1,1,-1
 359 147 l 1,2,-1
 698 147 l 1,3,-1
 672 0 l 1,4,-1
 160 0 l 2,5,6
 118 0 118 0 94 32 c 0,7,8
 70 63 70 63 78 110 c 2,9,-1
 90 181 l 1,10,-1
 468 403 l 1,11,-1
 129 403 l 1,12,-1
 155 550 l 1,13,-1
 667 550 l 2,14,15
 708 550 708 550 734 518 c 0,16,17
 758 487 758 487 750 440 c 2,0,-1
EndSplineSet
EndChar

StartChar: bar
Encoding: 124 124 93
Width: 267
Flags: W
LayerCount: 2
Fore
SplineSet
43 -94 m 1,0,-1
 168 614 l 1,1,-1
 314 614 l 1,2,-1
 189 -94 l 1,3,-1
 43 -94 l 1,0,-1
EndSplineSet
EndChar

StartChar: sterling
Encoding: 163 163 94
Width: 600
Flags: W
LayerCount: 2
Fore
SplineSet
643 440 m 2,0,-1
 630 367 l 1,1,-1
 494 367 l 1,2,-1
 500 403 l 1,3,-1
 364 403 l 1,4,-1
 354 348 l 1,5,-1
 456 348 l 1,6,-1
 431 202 l 1,7,-1
 328 202 l 1,8,-1
 319 147 l 1,9,-1
 591 147 l 1,10,-1
 565 0 l 1,11,-1
 54 0 l 1,12,-1
 80 147 l 1,13,-1
 148 147 l 1,14,-1
 158 202 l 1,15,-1
 90 202 l 1,16,-1
 115 348 l 1,17,-1
 184 348 l 1,18,-1
 200 440 l 2,19,20
 207 486 207 486 244 518 c 0,21,22
 279 550 279 550 321 550 c 2,23,-1
 560 550 l 2,24,25
 602 550 602 550 626 518 c 0,26,27
 651 488 651 488 643 440 c 2,0,-1
EndSplineSet
EndChar
